<svg xmlns="http://www.w3.org/2000/svg" version="1.1" xmlns:xlink="http://www.w3.org/1999/xlink"
    xmlns:svgjs="http://svgjs.dev/svgjs" width="1000" height="449" viewBox="0 0 1000 449">
    <g transform="matrix(1,0,0,1,-0.6060347313595571,0.2183890927556149)"><svg viewBox="0 0 396 178"
            data-background-color="#ffffff" preserveAspectRatio="xMidYMid meet" height="449" width="1000"
            xmlns="http://www.w3.org/2000/svg" xmlns:xlink="http://www.w3.org/1999/xlink">
            <g id="tight-bounds" transform="matrix(1,0,0,1,0.24001024638158697,-0.0865637513215205)"><svg
                    viewBox="0 0 395.52 178.17310017895883" height="178.17310017895883" width="395.52">
                    <g><svg viewBox="0 0 601.0184463671794 270.7456509253177" height="178.17310017895883"
                            width="395.52">
                            <g transform="matrix(1,0,0,1,205.49844636717947,37.41853786305043)"><svg
                                    viewBox="0 0 395.52 195.90857519921684" height="195.90857519921684" width="395.52">
                                    <g id="textblocktransform"><svg viewBox="0 0 395.52 195.90857519921684"
                                            height="195.90857519921684" width="395.52" id="textblock">
                                            <g><svg viewBox="0 0 395.52 122.71293744045728" height="122.71293744045728"
                                                    width="395.52">
                                                    <g transform="matrix(1,0,0,1,0,0)"><svg width="395.52"
                                                            viewBox="3.200000047683716 -37 157.44000244140625 48.849998474121094"
                                                            height="122.71293744045728" data-palette-color="#EEEEEE">
                                                            <path
                                                                d="M10.6 0L3.2 0 3.2-37 10.6-37 10.6-21.7 15.5-21.7 23.1-37 31-37 21.4-18.4 31.3 0 23.4 0 15.5-15 10.6-15 10.6 0ZM40.3 0.3L40.3 0.3Q37.25 0.3 35.35-1.5 33.45-3.3 33.45-6.5L33.45-6.5 33.45-8.9Q33.45-11.95 35.6-13.93 37.75-15.9 42.3-15.9L42.3-15.9 49.15-15.9 49.15-17.75Q49.15-19 48.7-19.83 48.25-20.65 47.02-21.03 45.8-21.4 43.3-21.4L43.3-21.4 35.25-21.4 35.25-25.7Q37.2-26.3 39.77-26.75 42.35-27.2 46-27.2L46-27.2Q49.35-27.2 51.72-26.4 54.1-25.6 55.32-23.65 56.55-21.7 56.55-18.25L56.55-18.25 56.55 0 50.7 0 49.5-2.85Q49.15-2.45 48.3-1.95 47.45-1.45 46.22-0.93 45-0.4 43.47-0.05 41.95 0.3 40.3 0.3ZM44.05-4.85L44.05-4.85Q44.55-4.85 45.17-4.98 45.8-5.1 46.47-5.28 47.15-5.45 47.72-5.63 48.3-5.8 48.67-5.95 49.05-6.1 49.15-6.15L49.15-6.15 49.15-12.4 44.65-12.1Q42.7-11.95 41.77-11.1 40.85-10.25 40.85-8.8L40.85-8.8 40.85-7.7Q40.85-6.7 41.27-6.05 41.7-5.4 42.42-5.13 43.15-4.85 44.05-4.85ZM71.84 0.3L71.84 0.3Q70.59 0.3 69.15 0.23 67.7 0.15 66.25 0 64.8-0.15 63.55-0.38 62.3-0.6 61.45-0.9L61.45-0.9 61.45-5.25 73.34-5.25Q74.4-5.25 75.07-5.43 75.75-5.6 76.07-6.08 76.4-6.55 76.4-7.45L76.4-7.45 76.4-8.3Q76.4-9.3 75.75-9.85 75.09-10.4 73.34-10.4L73.34-10.4 69.15-10.4Q66.84-10.4 65-11.1 63.15-11.8 62.07-13.4 61-15 61-17.7L61-17.7 61-19.25Q61-21.8 62-23.55 63-25.3 65.34-26.2 67.7-27.1 71.8-27.1L71.8-27.1Q73.45-27.1 75.32-26.93 77.2-26.75 78.87-26.48 80.55-26.2 81.55-25.85L81.55-25.85 81.55-21.5 70.3-21.5Q68.84-21.5 68.09-21.03 67.34-20.55 67.34-19.25L67.34-19.25 67.34-18.45Q67.34-17.55 67.7-17.13 68.05-16.7 68.77-16.53 69.5-16.35 70.59-16.35L70.59-16.35 74.9-16.35Q79-16.35 80.87-14.48 82.75-12.6 82.75-9.3L82.75-9.3 82.75-6.9Q82.75-4.2 81.47-2.63 80.2-1.05 77.77-0.38 75.34 0.3 71.84 0.3ZM94.74 11.85L87.34 11.85 87.34-26.85 93.54-26.85 94.74-24.3Q95.69-25.05 96.84-25.73 97.99-26.4 99.34-26.83 100.69-27.25 102.19-27.25L102.19-27.25Q104.64-27.25 106.47-26.3 108.29-25.35 109.44-23.55 110.59-21.75 111.14-19.18 111.69-16.6 111.69-13.4L111.69-13.4Q111.69-9.1 110.84-6 109.99-2.9 107.92-1.28 105.84 0.35 102.19 0.35L102.19 0.35Q100.29 0.35 98.32-0.1 96.34-0.55 94.74-1.4L94.74-1.4 94.74 11.85ZM99.79-5.75L99.79-5.75Q100.94-5.75 101.99-6.38 103.04-7 103.67-8.65 104.29-10.3 104.29-13.4L104.29-13.4Q104.29-16.4 103.72-18.13 103.14-19.85 102.14-20.58 101.14-21.3 99.79-21.3L99.79-21.3Q98.24-21.3 96.94-20.8 95.64-20.3 94.74-19.8L94.74-19.8 94.74-7.05Q95.74-6.45 97.09-6.1 98.44-5.75 99.79-5.75ZM127.89 0.25L127.89 0.25Q123.44 0.25 120.79-0.93 118.14-2.1 116.97-5.1 115.79-8.1 115.79-13.4L115.79-13.4Q115.79-18.85 116.89-21.85 117.99-24.85 120.59-26.05 123.19-27.25 127.64-27.25L127.64-27.25Q131.64-27.25 134.04-26.45 136.44-25.65 137.52-23.65 138.59-21.65 138.59-18L138.59-18Q138.59-15.3 137.52-13.73 136.44-12.15 134.49-11.48 132.54-10.8 129.89-10.8L129.89-10.8 123.14-10.8Q123.24-8.75 123.77-7.53 124.29-6.3 125.72-5.78 127.14-5.25 129.84-5.25L129.84-5.25 137.69-5.25 137.69-0.9Q135.74-0.5 133.42-0.13 131.09 0.25 127.89 0.25ZM123.04-15.2L123.04-15.2 129.14-15.2Q130.64-15.2 131.34-15.8 132.04-16.4 132.04-17.95L132.04-17.95Q132.04-19.4 131.59-20.28 131.14-21.15 130.19-21.53 129.24-21.9 127.64-21.9L127.64-21.9Q125.94-21.9 124.94-21.33 123.94-20.75 123.49-19.3 123.04-17.85 123.04-15.2ZM150.84 0L143.44 0 143.44-26.85 149.14-26.85 150.84-22.75Q152.29-24.6 154.11-25.9 155.94-27.2 158.44-27.2L158.44-27.2Q158.99-27.2 159.56-27.15 160.14-27.1 160.64-26.95L160.64-26.95 160.64-19.35Q159.89-19.45 159.06-19.53 158.24-19.6 157.49-19.6L157.49-19.6Q156.04-19.6 154.86-19.28 153.69-18.95 152.71-18.32 151.74-17.7 150.84-16.7L150.84-16.7 150.84 0Z"
                                                                opacity="1" transform="matrix(1,0,0,1,0,0)"
                                                                fill="#EEEEEE" class="undefined-text-0"
                                                                data-fill-palette-color="primary" id="text-0"></path>
                                                        </svg></g>
                                                </svg></g>
                                            <g transform="matrix(1,0,0,1,98.88,151.68251685965066)"><svg
                                                    viewBox="0 0 197.76 44.22605833956619" height="44.22605833956619"
                                                    width="197.76">
                                                    <g transform="matrix(1,0,0,1,0,0)"><svg width="197.76"
                                                            viewBox="0.550000011920929 -33.75 200.52999877929688 44.849998474121094"
                                                            height="44.22605833956619" data-palette-color="#EEEEEE">
                                                            <path
                                                                d="M0.55-29.15Q0.55-31.3 3.7-31.3L3.7-31.3Q5.05-31.3 8.85-31.2L8.85-31.2Q13.05-31 15.2-31L15.2-31Q16.95-31 19.45-31.2L19.45-31.2Q21.15-31.3 21.6-31.3L21.6-31.3Q24.35-31.2 26.25-30.3L26.25-30.3Q26.8-30.05 27.15-29.7 27.5-29.35 27.5-28.55L27.5-28.55Q27.5-27.45 26.8-26.68 26.1-25.9 25.1-25.9L25.1-25.9Q24-25.9 21.9-26.2L21.9-26.2Q20.05-26.55 18.65-26.55L18.65-26.55Q17.3-26.55 16.6-26.5L16.6-26.5Q16.45-24.85 16.45-18.6L16.45-18.6Q16.45-11.15 16.9-3.5L16.9-3.5 17-2.05Q17 0 14.65 0L14.65 0Q12.8 0 12.15-0.88 11.5-1.75 11.5-3.55L11.5-3.55Q11.5-7.1 11.3-12.4L11.3-12.4Q11.1-16.8 11.1-18.65L11.1-18.65Q11.1-19.9 11.4-26.3L11.4-26.3 5.55-26.25Q2.75-26.25 1.65-26.78 0.55-27.3 0.55-29.15L0.55-29.15ZM30.3-10.6Q30.3-12.5 31-14.43 31.7-16.35 32.85-17.95L32.85-17.95Q34-19.55 36.5-20.58 39-21.6 40.95-21.6L40.95-21.6Q42.95-21.6 45.02-21.05 47.1-20.5 47.9-19.35L47.9-19.35Q49.75-16.75 49.75-14.25L49.75-14.25Q49.75-12.9 49.17-11.95 48.6-11 47.55-9.9L47.55-9.9Q46.7-9 44.87-8.7 43.05-8.4 41.25-8.4L41.25-8.4Q40.1-8.4 38.45-8.63 36.8-8.85 35.25-9.2L35.25-9.2Q35.35-8.2 35.75-7.25 36.15-6.3 36.7-5.8L36.7-5.8Q37.7-4.85 38.77-4.6 39.85-4.35 41.55-4.35L41.55-4.35Q43.35-4.35 44.9-4.95L44.9-4.95Q46.15-5.4 46.95-5.4L46.95-5.4Q47.9-5.4 48.4-4.83 48.9-4.25 48.9-3.35L48.9-3.35Q48.9-2.1 47.45-1.3 46-0.5 44.12-0.13 42.25 0.25 41.1 0.25L41.1 0.25Q38.75 0.25 36.55-0.6 34.35-1.45 32.9-3L32.9-3Q31.7-4.4 31-6.38 30.3-8.35 30.3-10.6L30.3-10.6ZM41.2-17.35Q40.1-17.35 39-16.93 37.9-16.5 37.2-15.75L37.2-15.75Q36.3-14.8 35.97-14.23 35.65-13.65 35.55-12.65L35.55-12.65Q36.8-12.25 40.75-12.25L40.75-12.25Q42.9-12.25 44.07-12.9 45.25-13.55 45.25-14.6L45.25-14.6Q45.25-15.65 43.95-16.5 42.65-17.35 41.2-17.35L41.2-17.35ZM86.09-1.75Q85.34-3.15 85.15-4.88 84.95-6.6 84.95-9.65L84.95-9.65Q84.95-12.55 84.15-14.7 83.34-16.85 80.84-16.85L80.84-16.85Q79.9-16.85 78.97-16.28 78.05-15.7 77.59-14.85L77.59-14.85Q76.9-13.5 76.65-11.93 76.4-10.35 76.4-8.3L76.4-8.3Q76.4-7 76.55-5.65L76.55-5.65Q76.55-5.25 76.62-4.38 76.7-3.5 76.7-2.8L76.7-2.8Q76.7 0.2 74.59 0.2L74.59 0.2Q71.84 0.2 71.7-2.7L71.7-2.7Q71.7-4.75 71.75-4.9L71.75-4.9 71.75-7.05Q71.75-8.85 71.59-10.55 71.45-12.25 71.25-13.1L71.25-13.1Q70.8-14.75 70.07-15.65 69.34-16.55 67.8-16.55L67.8-16.55Q65.59-16.55 64.25-14.65L64.25-14.65Q63.3-13.15 63-11L63-11Q62.7-8.25 62.57-6.68 62.45-5.1 62.45-3.05L62.45-3.05Q62.45-1.6 61.97-0.7 61.5 0.2 60.2 0.2L60.2 0.2Q59.25 0.2 58.22-0.33 57.2-0.85 57.2-1.75L57.2-1.75Q57.2-2.7 57.4-3.65L57.4-3.65Q57.85-6.5 57.85-13.85L57.85-13.85Q57.85-15.05 57.27-16.18 56.7-17.3 55.9-17.3L55.9-17.3Q55.7-17.3 55.17-17.1 54.65-16.9 54.4-16.9L54.4-16.9Q53.75-16.9 53.22-17.5 52.7-18.1 52.7-18.5L52.7-18.5Q52.7-19.75 53.92-20.63 55.15-21.5 56.5-21.5L56.5-21.5Q58.35-21.5 59.65-20.35 60.95-19.2 61.65-17.15L61.65-17.15Q62.8-19.15 64.75-20.38 66.7-21.6 69.09-21.6L69.09-21.6Q70.59-21.6 71.52-21.23 72.45-20.85 73.05-20.18 73.65-19.5 74.59-18.15L74.59-18.15Q75.84-19.75 77.82-20.65 79.8-21.55 81.9-21.55L81.9-21.55Q84.4-21.55 86.4-19.53 88.4-17.5 89.09-14.85L89.09-14.85Q89.45-13.5 89.45-9.65L89.45-9.65 89.65-6.75Q89.9-4.15 91.34-3.6L91.34-3.6Q93.05-3.1 93.05-2.55L93.05-2.55Q93.05-1.35 92.45-0.8L92.45-0.8Q92-0.5 91.2-0.15 90.4 0.2 89.95 0.2L89.95 0.2Q87.25 0.2 86.09-1.75L86.09-1.75ZM97.74-17.4Q97.29-17.4 96.89-17.32 96.49-17.25 96.09-17.25L96.09-17.25Q95.54-17.25 95.07-17.75 94.59-18.25 94.59-18.65L94.59-18.65Q94.59-19.95 95.89-20.68 97.19-21.4 98.54-21.4L98.54-21.4Q99.69-21.4 100.92-20.63 102.14-19.85 102.74-18.65L102.74-18.65Q104.04-20.2 105.94-20.9 107.84-21.6 109.89-21.6L109.89-21.6Q112.19-21.6 114.17-20.15 116.14-18.7 117.29-16.48 118.44-14.25 118.44-12.05L118.44-12.05Q118.44-9.9 117.99-8.22 117.54-6.55 116.39-4.85L116.39-4.85Q115.09-3.05 112.92-1.9 110.74-0.75 107.74-0.75L107.74-0.75Q106.94-0.75 105.79-1.18 104.64-1.6 103.89-2.1L103.89-2.1Q103.54 1.3 103.54 3.8L103.54 3.8Q103.54 5.3 103.69 6.65L103.69 6.65Q103.79 8.25 103.79 8.95L103.79 8.95Q103.79 10.05 103.04 10.58 102.29 11.1 101.39 11.1L101.39 11.1Q99.59 11.1 99.02 10.13 98.44 9.15 98.44 7.35L98.44 7.35Q98.64 3.05 98.94-0.6L98.94-0.6Q99.24-5.1 99.24-14.5L99.24-14.5Q99.24-15.4 98.89-16.4 98.54-17.4 97.74-17.4L97.74-17.4ZM104.09-7.05Q104.34-6.1 105.52-5.48 106.69-4.85 107.64-4.85L107.64-4.85Q110.49-4.85 111.89-6.4L111.89-6.4Q112.94-7.5 113.27-8.55 113.59-9.6 113.59-11.9L113.59-11.9Q113.59-13.7 112.89-14.93 112.19-16.15 111.19-16.73 110.19-17.3 109.29-17.3L109.29-17.3Q107.24-17.3 105.97-16.07 104.69-14.85 104.34-12.75L104.34-12.75Q104.09-11.1 104.09-7.05L104.09-7.05ZM128.64-7.75Q128.64-5.85 129.22-4.83 129.79-3.8 130.69-3.8L130.69-3.8Q131.19-3.8 131.64-3.88 132.09-3.95 132.54-3.95L132.54-3.95Q133.04-3.95 133.42-3.45 133.79-2.95 133.79-2.35L133.79-2.35Q133.79-1.15 132.67-0.48 131.54 0.2 129.64 0.2L129.64 0.2Q128.29 0.2 126.92-0.63 125.54-1.45 124.64-3.23 123.74-5 123.74-7.65L123.74-7.65Q123.74-13.35 123.94-17.3L123.94-17.3Q124.19-22 124.19-29.15L124.19-29.15Q124.19-31.4 124.44-32.3L124.44-32.3Q124.74-33 125.42-33.38 126.09-33.75 126.84-33.75L126.84-33.75Q127.59-33.75 128.17-33.5 128.74-33.25 128.94-32.7L128.94-32.7Q129.14-32.1 129.22-31.53 129.29-30.95 129.29-29.9L129.29-29.9Q129.29-27.85 129.14-25.95L129.14-25.95Q129.04-23.65 129.04-22.6L129.04-22.6Q128.64-13.8 128.64-7.75L128.64-7.75ZM159.94-2.4Q159.94-1.3 158.76-0.55 157.59 0.2 156.59 0.2L156.59 0.2Q154.69 0.2 153.56-0.28 152.44-0.75 151.49-2.05L151.49-2.05Q150.19-0.9 147.94-0.33 145.69 0.25 143.79 0.25L143.79 0.25Q140.69 0.25 138.69-1.43 136.69-3.1 136.69-6.35L136.69-6.35Q136.69-7.75 137.44-8.93 138.19-10.1 139.49-11L139.49-11Q140.94-11.95 142.79-12.48 144.64-13 146.64-13L146.64-13Q147.69-13 149.14-12.6 150.59-12.2 151.39-11.75L151.39-11.75 151.39-12.55Q151.39-15.25 150.09-16.28 148.79-17.3 145.89-17.3L145.89-17.3Q145.04-17.3 144.21-16.95 143.39-16.6 142.34-16L142.34-16Q140.94-15.25 139.69-15.25L139.69-15.25Q139.24-15.25 138.84-15.88 138.44-16.5 138.44-17L138.44-17Q138.44-18.45 139.81-19.5 141.19-20.55 143.09-21.08 144.99-21.6 146.49-21.6L146.49-21.6Q147.99-21.6 149.94-21.03 151.89-20.45 153.14-19.45L153.14-19.45Q154.64-18.15 155.46-16.43 156.29-14.7 156.29-12.65L156.29-12.65Q156.29-12 156.19-10.7L156.19-10.7Q156.09-9.3 156.09-8.3L156.09-8.3Q156.09-7.85 155.99-6.95L155.99-6.95Q155.89-5.85 155.89-5.2L155.89-5.2Q155.89-4.6 156.34-4.17 156.79-3.75 157.39-3.75L157.39-3.75 158.79-3.8Q159.34-3.8 159.64-3.4 159.94-3 159.94-2.4L159.94-2.4ZM143.84-3.7Q145.99-3.7 147.44-4.15 148.89-4.6 150.94-5.8L150.94-5.8Q151.14-6.65 151.19-8.05L151.19-8.05Q148.44-9.35 146.64-9.35L146.64-9.35Q144.59-9.35 142.99-8.6 141.39-7.85 141.39-5.95L141.39-5.95Q141.39-5 142.19-4.35 142.99-3.7 143.84-3.7L143.84-3.7ZM165.64-17.1L163.24-17.3Q162.54-17.4 162.11-17.9 161.69-18.4 161.69-19.1L161.69-19.1Q161.69-19.45 161.86-19.85 162.04-20.25 162.39-20.55L162.39-20.55Q163.04-21.2 165.89-21.2L165.89-21.2Q166.29-23.15 166.29-25.15L166.29-25.15Q166.29-25.9 166.24-26.45 166.19-27 166.19-27.3L166.19-27.3Q166.19-28.4 167.01-28.95 167.84-29.5 168.89-29.5L168.89-29.5Q170.19-29.5 170.66-28.85 171.14-28.2 171.14-26.45L171.14-26.45Q171.14-23.85 170.69-21.35L170.69-21.35Q171.49-21.35 172.89-21.45L172.89-21.45Q174.79-21.55 175.64-21.55L175.64-21.55Q176.49-21.55 177.11-21.13 177.74-20.7 177.74-19.95L177.74-19.95Q177.74-18 175.99-17.65L175.99-17.65Q174.14-17.2 170.24-17.1L170.24-17.1Q170.09-15.15 170.09-12.85L170.09-12.85Q170.09-9.25 170.54-6.95L170.54-6.95Q170.84-5.35 171.56-4.63 172.29-3.9 173.74-3.9L173.74-3.9Q174.59-3.9 175.49-4.35L175.49-4.35Q176.09-4.7 176.59-4.7L176.59-4.7Q177.29-4.7 177.61-4.25 177.94-3.8 177.94-3.05L177.94-3.05Q177.94-1.65 176.44-0.73 174.94 0.2 172.59 0.2L172.59 0.2Q171.14 0.2 169.66-0.5 168.19-1.2 167.19-2.25L167.19-2.25Q167.04-2.4 166.64-3.4 166.24-4.4 165.94-5.55L165.94-5.55Q165.44-7.9 165.44-12.15L165.44-12.15Q165.44-14 165.64-17.1L165.64-17.1ZM181.63-10.6Q181.63-12.5 182.33-14.43 183.03-16.35 184.18-17.95L184.18-17.95Q185.33-19.55 187.83-20.58 190.33-21.6 192.28-21.6L192.28-21.6Q194.28-21.6 196.36-21.05 198.43-20.5 199.23-19.35L199.23-19.35Q201.08-16.75 201.08-14.25L201.08-14.25Q201.08-12.9 200.51-11.95 199.93-11 198.88-9.9L198.88-9.9Q198.03-9 196.21-8.7 194.38-8.4 192.58-8.4L192.58-8.4Q191.43-8.4 189.78-8.63 188.13-8.85 186.58-9.2L186.58-9.2Q186.68-8.2 187.08-7.25 187.48-6.3 188.03-5.8L188.03-5.8Q189.03-4.85 190.11-4.6 191.18-4.35 192.88-4.35L192.88-4.35Q194.68-4.35 196.23-4.95L196.23-4.95Q197.48-5.4 198.28-5.4L198.28-5.4Q199.23-5.4 199.73-4.83 200.23-4.25 200.23-3.35L200.23-3.35Q200.23-2.1 198.78-1.3 197.33-0.5 195.46-0.13 193.58 0.25 192.43 0.25L192.43 0.25Q190.08 0.25 187.88-0.6 185.68-1.45 184.23-3L184.23-3Q183.03-4.4 182.33-6.38 181.63-8.35 181.63-10.6L181.63-10.6ZM192.53-17.35Q191.43-17.35 190.33-16.93 189.23-16.5 188.53-15.75L188.53-15.75Q187.63-14.8 187.31-14.23 186.98-13.65 186.88-12.65L186.88-12.65Q188.13-12.25 192.08-12.25L192.08-12.25Q194.23-12.25 195.41-12.9 196.58-13.55 196.58-14.6L196.58-14.6Q196.58-15.65 195.28-16.5 193.98-17.35 192.53-17.35L192.53-17.35Z"
                                                                opacity="1" transform="matrix(1,0,0,1,0,0)"
                                                                fill="#EEEEEE" class="undefined-text-1"
                                                                data-fill-palette-color="secondary" id="text-1"></path>
                                                        </svg></g>
                                                </svg></g>
                                        </svg></g>
                                </svg></g>
                            <g><svg viewBox="0 0 176.52886694798607 270.7456509253177" height="270.7456509253177"
                                    width="176.52886694798607">
                                    <g><svg xmlns="http://www.w3.org/2000/svg"
                                            xmlns:xlink="http://www.w3.org/1999/xlink" version="1.1" x="0" y="0"
                                            viewBox="-223.09999084472656 387.6000061035156 51.89997863769531 79.5999755859375"
                                            enable-background="new -247 370.9 100 100" xml:space="preserve"
                                            height="270.7456509253177" width="176.52886694798607" class="icon-icon-0"
                                            data-fill-palette-color="accent" id="icon-0">
                                            <path fill="#00adb5"
                                                d="M-185.4 405.6c-3 0-5.4 2.4-5.4 5.4s2.4 5.4 5.4 5.4c3 0 5.4-2.4 5.4-5.4S-182.4 405.6-185.4 405.6zM-185.4 412.9c-1 0-1.8-0.8-1.8-1.8 0-1 0.8-1.8 1.8-1.8 1 0 1.8 0.8 1.8 1.8C-183.5 412-184.4 412.9-185.4 412.9z"
                                                data-fill-palette-color="accent"></path>
                                            <circle fill="#00adb5" cx="-209.6" cy="462.6" r="1.8"
                                                data-fill-palette-color="accent"></circle>
                                            <circle fill="#00adb5" cx="-185.4" cy="443.8" r="1.8"
                                                data-fill-palette-color="accent"></circle>
                                            <circle fill="#00adb5" cx="-215.3" cy="446" r="1.8"
                                                data-fill-palette-color="accent"></circle>
                                            <path fill="#00adb5"
                                                d="M-201.2 452c1 0 1.8-0.8 1.8-1.8 0-3.3-2.7-6-6-6s-6 2.7-6 6v5.4c0 1 0.8 1.8 1.8 1.8 1 0 1.8-0.8 1.8-1.8v-5.4c0-1.3 1-2.3 2.3-2.3 1.3 0 2.3 1 2.3 2.3C-203.1 451.2-202.2 452-201.2 452z"
                                                data-fill-palette-color="accent"></path>
                                            <path fill="#00adb5"
                                                d="M-197.2 387.6c-14.3 0-25.9 11.6-25.9 25.9v38.9c0 1 0.8 1.8 1.8 1.8 1 0 1.8-0.8 1.8-1.8v-38.9c0-12.3 10-22.2 22.2-22.2 12.3 0 22.2 10 22.2 22.2V449c0 1 0.8 1.8 1.8 1.8 1 0 1.8-0.8 1.8-1.8v-35.6C-171.3 399.1-182.9 387.6-197.2 387.6z"
                                                data-fill-palette-color="accent"></path>
                                            <path fill="#00adb5"
                                                d="M-189 447.5c-3.3 0-6 2.7-6 6v5.1c0 1.3-1 2.3-2.3 2.3-1.3 0-2.3-1-2.3-2.3 0-1-0.8-1.8-1.8-1.8-1 0-1.8 0.8-1.8 1.8 0 3.3 2.7 6 6 6 3.3 0 6-2.7 6-6v-5.1c0-1.3 1-2.3 2.3-2.3 1.3 0 2.3 1 2.3 2.3v11.9c0 1 0.8 1.8 1.8 1.8 1 0 1.8-0.8 1.8-1.8v-11.9C-183 450.2-185.7 447.5-189 447.5z"
                                                data-fill-palette-color="accent"></path>
                                            <path fill="#00adb5"
                                                d="M-173.1 453.3c-2.2 0-4-1.8-4-4v-5.5c0-1-0.8-1.8-1.8-1.8-1 0-1.8 0.8-1.8 1.8v5.5c0 4.2 3.4 7.7 7.7 7.7 1 0 1.8-0.8 1.8-1.8S-172.1 453.3-173.1 453.3z"
                                                data-fill-palette-color="accent"></path>
                                            <path fill="#00adb5"
                                                d="M-215.3 451.1c-1 0-1.8 0.8-1.8 1.8v6.9c0 1 0.8 1.8 1.8 1.8 1 0 1.8-0.8 1.8-1.8v-6.9C-213.5 451.9-214.3 451.1-215.3 451.1z"
                                                data-fill-palette-color="accent"></path>
                                            <path fill="#00adb5"
                                                d="M-197.4 434.1c2 0 3.7-1.3 4.1-3.2l1.1-4.5c0.2-0.5 0.2-1 0.2-1.6 0-3-2.5-5.5-5.5-5.5s-5.5 2.5-5.5 5.5c0 0.5 0.1 1.1 0.2 1.6l1.1 4.5C-201 432.8-199.3 434.1-197.4 434.1zM-197.4 423c1 0 1.8 0.8 1.8 1.8 0 0.1 0 0.2 0 0.3l-1.2 4.9c-0.1 0.2-0.3 0.5-0.6 0.5-0.3 0-0.5-0.2-0.6-0.5l-1.1-4.5h0l-0.1-0.3c0-0.1 0-0.2 0-0.3C-199.2 423.8-198.4 423-197.4 423z"
                                                data-fill-palette-color="accent"></path>
                                            <path fill="#00adb5"
                                                d="M-203.6 411c0-3-2.4-5.4-5.4-5.4-3 0-5.4 2.4-5.4 5.4s2.4 5.4 5.4 5.4C-206 416.5-203.6 414-203.6 411zM-210.8 411c0-1 0.8-1.8 1.8-1.8 1 0 1.8 0.8 1.8 1.8 0 1-0.8 1.8-1.8 1.8C-210 412.9-210.8 412-210.8 411z"
                                                data-fill-palette-color="accent"></path>
                                        </svg></g>
                                </svg></g>
                        </svg></g>
                    <defs></defs>
                </svg>
                <rect width="395.52" height="178.17310017895883" fill="none" stroke="none" visibility="hidden"></rect>
            </g>
        </svg></g>
</svg>
