<svg xmlns="http://www.w3.org/2000/svg" xmlns:xlink="http://www.w3.org/1999/xlink" width="35" height="35" stroke="#000" stroke-width="0" viewBox="-2.64 -2.64 29.28 29.28" style="transition:all 1.3s ease"><style/><g id="prefix__search-icon"><defs><path id="prefix__search-a" d="M11.71.573C9.47 1.29 8 3.054 7.3 5.865 6.251 10.08 4.952 10.618.72 9.119c1.52 2.807 4.6 3.932 6.58 3.932 1.98 0 7.11-2.757 6.522-7.998A21.678 21.678 0 0011.71.573z"/><path id="prefix__search-c" d="M14.18 12.77l5.53 5.54a.99.99 0 01-1.4 1.4l-5.53-5.539a7.92 7.92 0 111.399-1.401zM7.92 13.86a5.94 5.94 0 100-11.88 5.94 5.94 0 000 11.88z"/></defs><g fill="none" fill-rule="evenodd" transform="translate(2 2)"><g transform="translate(1 2)"><mask id="prefix__search-b" fill="#fff"><use xlink:href="#prefix__search-a"/></mask><use fill="#D8D8D8" xlink:href="#prefix__search-a"/><g fill="#00adb5" mask="url(#prefix__search-b)"><path d="M0 0h24v24H0z" transform="translate(-3 -4)"/></g></g><mask id="prefix__search-d" fill="#fff"><use xlink:href="#prefix__search-c"/></mask><use fill="#000" fill-rule="nonzero" xlink:href="#prefix__search-c"/><g fill="#372e42" mask="url(#prefix__search-d)"><path d="M0 0h24v24H0z" transform="translate(-2 -2)"/></g></g></g></svg>