<svg xmlns="http://www.w3.org/2000/svg" width="610" height="572" fill="none"><g clip-path="url(#prefix__clip0_4_34)"><g clip-path="url(#prefix__clip1_4_34)"><path fill="#EEE" d="M43.029 528.395H18.75V386H43.03v58.882h16.076L84.04 386h25.919l-31.497 71.582 32.481 70.813H85.024l-25.919-57.728H43.03v57.728zm97.442 1.155c-6.671 0-12.084-2.309-16.24-6.928-4.156-4.618-6.234-11.032-6.234-19.242v-9.237c0-7.825 2.351-14.278 7.054-19.358 4.703-5.054 12.03-7.581 21.982-7.581h22.474v-7.12c0-3.207-.492-5.875-1.476-8.005-.984-2.104-2.822-3.643-5.512-4.618-2.669-.95-6.737-1.424-12.205-1.424h-26.411v-16.549c4.265-1.539 9.208-2.886 14.829-4.041 5.644-1.154 12.457-1.732 20.44-1.732 7.328 0 13.583 1.027 18.767 3.079 5.206 2.053 9.143 5.581 11.811 10.584 2.691 5.003 4.036 11.93 4.036 20.782v70.235h-19.193l-3.938-10.968c-.765 1.026-2.077 2.181-3.937 3.463-1.859 1.283-4.134 2.592-6.824 3.926-2.668 1.36-5.676 2.489-9.022 3.387-3.325.898-6.792 1.347-10.401 1.347zm12.304-19.82c1.093 0 2.318-.167 3.674-.501 1.378-.307 2.8-.692 4.265-1.154a62.131 62.131 0 004.102-1.347c1.268-.436 2.307-.847 3.116-1.232.832-.384 1.356-.641 1.575-.769v-24.054l-14.764 1.155c-4.265.385-7.415 1.668-9.449 3.849-2.012 2.18-3.018 5.131-3.018 8.851v4.234c0 2.565.459 4.682 1.378 6.35.94 1.667 2.198 2.847 3.773 3.54 1.596.719 3.379 1.078 5.348 1.078zm91.176 19.82c-2.734 0-5.676-.09-8.826-.27a169.96 169.96 0 01-9.515-.885c-3.171-.385-6.124-.872-8.858-1.462-2.734-.565-5.031-1.232-6.89-2.002V508.19h39.01c2.318 0 4.21-.231 5.676-.692 1.487-.437 2.581-1.27 3.281-2.502.722-1.206 1.083-2.963 1.083-5.272v-3.272c0-2.565-.711-4.554-2.133-5.965-1.444-1.411-4.079-2.116-7.907-2.116h-13.747c-5.053 0-9.591-.898-13.616-2.694-4.046-1.796-7.25-4.747-9.613-8.852-2.34-4.105-3.51-9.621-3.51-16.549v-5.965c0-6.542 1.093-12.059 3.281-16.548 2.187-4.49 5.84-7.89 10.958-10.199 5.162-2.309 12.227-3.464 21.194-3.464 3.609 0 7.459.218 11.549.655a156.02 156.02 0 0111.647 1.731c3.675.719 6.606 1.527 8.793 2.425v16.741h-36.91c-3.193 0-5.61.603-7.251 1.809-1.64 1.231-2.46 3.515-2.46 6.85v3.079c0 2.309.393 4.002 1.181 5.08.765 1.103 1.935 1.873 3.51 2.309 1.597.462 3.587.693 5.972.693h14.14c8.968 0 15.497 2.399 19.587 7.197 4.112 4.823 6.168 11.468 6.168 19.935v9.236c0 6.928-1.4 12.405-4.199 16.433-2.778 4.054-6.825 6.941-12.14 8.66-5.315 1.744-11.8 2.617-19.455 2.617zM319.083 574h-24.278V425.062h20.341l3.937 9.814a62.755 62.755 0 016.89-5.503 38.136 38.136 0 018.202-4.234c2.953-1.077 6.07-1.616 9.351-1.616 5.359 0 10.039 1.219 14.042 3.656 3.981 2.438 7.229 5.965 9.744 10.584 2.516 4.618 4.375 10.224 5.578 16.818 1.203 6.619 1.804 14.034 1.804 22.244 0 11.032-.929 20.525-2.788 28.479-1.86 7.954-5.053 14.009-9.581 18.165-4.549 4.182-10.816 6.273-18.799 6.273-4.156 0-8.388-.577-12.697-1.732-4.331-1.154-8.246-2.822-11.746-5.003V574zm16.569-67.734c2.515 0 4.921-.808 7.218-2.424 2.296-1.591 4.134-4.503 5.512-8.737 1.356-4.233 2.034-10.326 2.034-18.28 0-7.697-.624-13.765-1.87-18.204-1.269-4.412-2.997-7.555-5.184-9.428-2.188-1.848-4.758-2.771-7.71-2.771-3.391 0-6.507.641-9.351 1.924-2.843 1.283-5.249 2.566-7.218 3.848v49.069c2.187 1.539 4.757 2.758 7.71 3.656 2.953.898 5.906 1.347 8.859 1.347zm92.193 23.091c-9.734 0-17.498-1.514-23.295-4.541-5.796-3.002-9.974-8.351-12.533-16.048-2.581-7.697-3.871-18.345-3.871-31.943 0-13.983 1.203-24.823 3.609-32.52 2.406-7.697 6.452-13.085 12.139-16.164 5.687-3.079 13.397-4.618 23.131-4.618 8.749 0 15.748 1.026 20.997 3.079 5.25 2.052 9.056 5.644 11.418 10.776 2.34 5.131 3.51 12.379 3.51 21.744 0 6.927-1.17 12.405-3.51 16.433-2.362 4.054-5.676 6.94-9.941 8.659-4.265 1.745-9.296 2.617-15.092 2.617h-22.146c.218 5.26.907 9.455 2.066 12.585 1.138 3.156 3.27 5.401 6.398 6.735 3.106 1.359 7.612 2.039 13.517 2.039h25.756v16.741c-4.266 1.027-8.935 2.014-14.01 2.964-5.096.975-11.144 1.462-18.143 1.462zm-15.913-59.459h20.014c3.281 0 5.687-.77 7.218-2.309 1.531-1.54 2.296-4.298 2.296-8.275 0-3.72-.492-6.709-1.476-8.967-.984-2.232-2.515-3.836-4.593-4.81-2.078-.95-4.867-1.424-8.366-1.424-3.719 0-6.672.731-8.859 2.193-2.187 1.488-3.773 4.093-4.757 7.813-.984 3.72-1.477 8.98-1.477 15.779zm91.209 58.497h-24.278V425.062h18.701l5.577 15.779c3.172-4.746 6.748-8.787 10.729-12.122 4.002-3.336 8.738-5.004 14.206-5.004 1.203 0 2.428.065 3.675.193 1.268.128 2.449.385 3.543.77v29.248c-1.64-.256-3.368-.487-5.184-.692-1.793-.18-3.51-.27-5.151-.27-3.171 0-6.048.411-8.629 1.232a24.31 24.31 0 00-7.053 3.694c-2.122 1.591-4.167 3.669-6.136 6.235v64.27z"/></g></g><g clip-path="url(#prefix__clip2_4_34)"><g fill="#00ADB5" clip-path="url(#prefix__clip3_4_34)"><path d="M315.3 93.528c-16.169 0-29.104 12.47-29.104 28.058s12.935 28.058 29.104 28.058c16.168 0 29.103-12.47 29.103-28.058S331.468 93.528 315.3 93.528zm0 37.93c-5.39 0-9.701-4.156-9.701-9.352 0-5.196 4.311-9.353 9.701-9.353 5.389 0 9.701 4.157 9.701 9.353.538 4.676-4.312 9.352-9.701 9.352zM184.875 399.051c5.357 0 9.701-4.187 9.701-9.352 0-5.166-4.344-9.353-9.701-9.353-5.358 0-9.701 4.187-9.701 9.353 0 5.165 4.343 9.352 9.701 9.352zM315.3 301.367c5.357 0 9.7-4.188 9.7-9.353s-4.343-9.353-9.7-9.353c-5.358 0-9.702 4.188-9.702 9.353s4.344 9.353 9.702 9.353zM154.155 312.798c5.357 0 9.701-4.187 9.701-9.353 0-5.165-4.344-9.352-9.701-9.352-5.358 0-9.701 4.187-9.701 9.352 0 5.166 4.343 9.353 9.701 9.353zM230.146 334.621c5.39 0 9.701-4.157 9.701-9.352 0-17.147-14.551-31.176-32.337-31.176-17.785 0-32.336 14.029-32.336 31.176v28.058c0 5.196 4.311 9.352 9.701 9.352 5.389 0 9.701-4.156 9.701-9.352v-28.058c0-6.755 5.389-11.951 12.395-11.951 7.007 0 12.396 5.196 12.396 11.951.539 5.195 5.39 9.352 10.779 9.352z"/><path d="M251.704 0c-77.069 0-139.587 60.273-139.587 134.576V336.7c0 5.196 4.311 9.352 9.701 9.352 5.389 0 9.701-4.156 9.701-9.352V134.576c0-63.91 53.894-115.351 119.646-115.351 66.29 0 119.646 51.96 119.646 115.351v184.457c0 5.196 4.312 9.353 9.701 9.353 5.39 0 9.701-4.157 9.701-9.353V134.056C391.291 59.754 328.773 0 251.704 0z"/><path d="M295.897 311.239c-17.785 0-32.336 14.029-32.336 31.176v26.5c0 6.754-5.39 11.95-12.396 11.95-7.006 0-12.396-5.196-12.396-11.95 0-5.196-4.311-9.353-9.701-9.353-5.389 0-9.701 4.157-9.701 9.353 0 17.146 14.552 31.176 32.337 31.176 17.785 0 32.337-14.03 32.337-31.176v-26.5c0-6.755 5.389-11.951 12.395-11.951 7.007 0 12.396 5.196 12.396 11.951v61.832c0 5.196 4.312 9.353 9.701 9.353 5.39 0 9.701-4.157 9.701-9.353v-61.832c0-17.147-14.551-31.176-32.337-31.176zM381.59 341.376c-11.857 0-21.558-9.353-21.558-20.784v-28.578c0-5.196-4.311-9.353-9.701-9.353-5.389 0-9.701 4.157-9.701 9.353v28.578c0 21.823 18.324 40.009 41.499 40.009 5.389 0 9.701-4.157 9.701-9.353s-4.851-9.872-10.24-9.872zM154.155 329.945c-5.39 0-9.701 4.157-9.701 9.353v35.852c0 5.196 4.311 9.353 9.701 9.353 5.389 0 9.701-4.157 9.701-9.353v-35.852c0-5.196-4.312-9.353-9.701-9.353zM250.626 241.613c10.779 0 19.941-6.755 22.097-16.627l5.928-23.382c1.078-2.598 1.078-5.196 1.078-8.314 0-15.588-13.474-28.577-29.642-28.577s-29.642 12.989-29.642 28.577c0 2.598.539 5.716 1.078 8.314l5.928 23.382c3.773 9.872 12.935 16.627 23.175 16.627zm0-57.675c5.389 0 9.701 4.156 9.701 9.352v1.559l-6.467 25.461c-.539 1.039-1.617 2.598-3.234 2.598s-2.695-1.04-3.234-2.598l-5.928-23.382-.539-1.559v-1.559c0-5.716 4.312-9.872 9.701-9.872zM217.211 121.586c0-15.588-12.934-28.058-29.103-28.058-16.168 0-29.103 12.47-29.103 28.058s12.935 28.058 29.103 28.058c16.169.52 29.103-12.47 29.103-28.058zm-38.804 0c0-5.196 4.312-9.353 9.701-9.353 5.39 0 9.701 4.157 9.701 9.353s-4.311 9.353-9.701 9.353c-5.389.519-9.701-4.157-9.701-9.353z"/></g></g><defs><clipPath id="prefix__clip0_4_34"><path fill="#fff" d="M0 0h608.955v413.6H0z" transform="translate(.601 156)"/></clipPath><clipPath id="prefix__clip1_4_34"><path fill="#fff" d="M0 0h608.955v413.6H0z" transform="translate(-44.073 134)"/></clipPath><clipPath id="prefix__clip2_4_34"><path fill="#fff" d="M0 0h279.713v413.6H0z" transform="translate(112.117)"/></clipPath><clipPath id="prefix__clip3_4_34"><path fill="#fff" d="M0 0h279.713v413.6H0z" transform="translate(112.117)"/></clipPath></defs></svg>